<?xml version="1.0" encoding="utf-8"?>
<!-- Generator: Adobe Illustrator 19.0.0, SVG Export Plug-In . SVG Version: 6.00 Build 0)  -->
<svg version="1.1" id="Layer_1" xmlns="http://www.w3.org/2000/svg" xmlns:xlink="http://www.w3.org/1999/xlink" x="0px" y="0px"
	 viewBox="0 0 300 100" style="enable-background:new 0 0 300 100;" xml:space="preserve">
<style type="text/css">
	.st0{fill:#36A9B9;}
</style>
<g>
	<path class="st0" d="M30.9,25.6c-13.4,0-24.3,11.2-24.3,25c0,13.8,10.9,25,24.3,25c13.4,0,24.3-11.2,24.3-25
		C55.2,36.8,44.3,25.6,30.9,25.6z M43.4,67.3h-9.9c-3.6,0-6.3-0.5-8.4-1.7c-2.1-1.1-3.8-2.9-5.1-5.2c-0.9-1.6-1.5-3.5-1.8-5.6
		l-0.2-1.8h5.7l0.2,1.3c0.2,1.4,0.6,2.6,1.3,3.6c1,1.4,2.2,2.4,3.9,3c0.9,0.3,2.8,0.6,7.1,0.6h4.6v0.1h2.5V67.3z M43.5,49.7v1.6
		L42,51.3h-4.2v-1.6c0-0.1,0-0.2,0-0.3c0-2.3-0.5-4.3-1.6-5.9c-1-1.6-2.5-2.6-4.3-3.2c-1.5-0.5-4.1-0.7-7.7-0.7h-0.3v11.7h-5.6V33.9
		h7c4.2,0,7.1,0.3,9.1,1.1c2.9,1,5.1,2.9,6.8,5.4c1.6,2.5,2.4,5.5,2.4,9C43.5,49.5,43.5,49.6,43.5,49.7z"/>
	<g>
		<g>
			<path d="M78.2,70.1c-9.3,0-16-7.1-16-16.9c0-9.8,6.7-16.9,16-16.9c5.1,0,9.6,2.3,12.6,6.2V32.1c0-0.6,0.5-1.2,1.1-1.2h1.2
				c0.6,0,1.1,0.5,1.1,1.2v21.2c0,3.9-1.1,6.4-1.3,6.8C90.5,66.3,84.8,70.1,78.2,70.1z M78.2,39.8c-7.3,0-12.6,5.6-12.6,13.4
				c0,7.7,5.3,13.3,12.6,13.3c7.3,0,12.6-5.6,12.6-13.3C90.8,45.4,85.5,39.8,78.2,39.8z"/>
		</g>
		<g>
			<path d="M114.4,70c-9.1,0-15.8-7.1-15.8-16.8c0-9.7,6.6-16.8,15.8-16.8c9,0,15.2,6.9,15.2,16.8c0,0.6-0.4,1.1-0.9,1.1L103,58.7
				c1.1,2.4,5.4,7.7,11.4,7.7c4.1,0,7.6-1.5,9.9-4.1c0.2-0.2,0.5-0.4,0.8-0.4c0.3,0,0.6,0.1,0.8,0.3l0.8,0.8c0.4,0.4,0.4,1.1,0,1.6
				C123.8,68.1,119.4,70,114.4,70z M114.7,39.9c-0.1,0-0.2,0-0.3,0c-3.6,0.1-6.6,1.4-8.8,3.8c-2.4,2.7-3.6,6.7-3.6,11.2l24-4
				C125.3,44.2,120.9,39.9,114.7,39.9z"/>
		</g>
		<g>
			<path d="M144.9,70h-1.3c-0.5,0-0.9-0.3-1-0.7L130.1,38c-0.1-0.4-0.1-0.8,0.1-1.1c0.2-0.3,0.6-0.5,0.9-0.5h1.4
				c0.5,0,0.9,0.3,1,0.7l10.7,27.2l10.6-27.2c0.2-0.4,0.6-0.7,1-0.7h1.4c0.4,0,0.7,0.2,0.9,0.5c0.2,0.3,0.2,0.7,0.1,1.1l-12.5,31.3
				C145.8,69.7,145.4,70,144.9,70z"/>
		</g>
		<g>
			<path d="M174.4,70c-9.2,0-15.9-7.1-15.9-16.8c0-9.7,6.7-16.8,15.9-16.8c4.2,0,8.2,1.6,11.1,4.5c0.4,0.4,0.5,1.2,0,1.6l-0.8,0.8
				c-0.4,0.5-1.1,0.5-1.6,0.1c-2.5-2.3-5.5-3.5-8.8-3.5c-7.4,0-12.5,5.4-12.5,13.2c0,7.8,5.1,13.3,12.5,13.3c3.8,0,7.1-1.5,9.4-4.1
				c0.2-0.2,0.5-0.4,0.8-0.4c0.3,0,0.6,0.1,0.8,0.4l0.8,0.8c0.4,0.4,0.4,1.1,0,1.6C183.3,68.1,179.1,70,174.4,70z"/>
		</g>
		<g>
			<path d="M205.4,70c-9.2,0-15.9-7.1-15.9-16.8c0-9.7,6.7-16.8,15.9-16.8s15.9,7,15.9,16.8C221.3,62.9,214.6,70,205.4,70z
				 M205.4,39.9c-7.3,0-12.4,5.4-12.4,13.2c0,7.8,5.1,13.3,12.4,13.3s12.4-5.5,12.4-13.3C217.8,45.4,212.7,39.9,205.4,39.9z"/>
		</g>
		<g>
			<path d="M258.9,70h-1.3c-0.5,0-0.9-0.3-1.1-0.8l-9.8-26.7l-9.9,26.7c-0.2,0.5-0.6,0.7-1.1,0.7h-1.3c-0.5,0-0.9-0.3-1.1-0.7
				L222,38c-0.1-0.4-0.1-0.8,0.1-1.1c0.2-0.3,0.6-0.5,0.9-0.5h1.4c0.5,0,0.9,0.3,1.1,0.8l9.8,26.9l9.7-26.9c0.2-0.5,0.6-0.8,1.1-0.8
				h1.4c0.5,0,0.9,0.3,1.1,0.8l9.8,27l9.8-27c0.2-0.5,0.6-0.8,1.1-0.8h1.4c0.4,0,0.7,0.2,0.9,0.5c0.2,0.3,0.3,0.7,0.1,1.1L260,69.2
				C259.8,69.7,259.4,70,258.9,70z"/>
		</g>
		<g>
			<path d="M283.1,70c-4.5,0-8.8-1.7-11.7-4.7c-0.4-0.4-0.4-1.1-0.1-1.6l0.8-0.9c0.2-0.2,0.5-0.4,0.8-0.4c0.3,0,0.6,0.1,0.8,0.3
				c2.4,2.4,5.6,3.7,9.3,3.7c1.8,0,7.7-0.4,7.9-5.5c0.1-3.6-2.9-4.8-7.9-6.4c-4.8-1.5-10.3-3.3-10.3-9.5c0-5.3,4.2-8.7,10.8-8.7
				c3.1,0,6,0.8,8.7,2.4c0.3,0.2,0.4,0.4,0.5,0.7c0.1,0.3,0,0.6-0.1,0.9l-0.6,1c-0.2,0.3-0.4,0.5-0.7,0.5c-0.3,0.1-0.6,0-0.9-0.1
				c-1.9-1.2-4.2-1.9-6.9-1.9c-2.2,0-7.4,0.5-7.4,5c0,3.4,3,4.6,7.8,6.1c4.9,1.5,10.5,3.2,10.5,9.7C294.5,66.3,290,70,283.1,70z"/>
		</g>
	</g>
</g>
</svg>
